<?xml version="1.0" encoding="utf-8"?>
<!-- Generator: Adobe Illustrator 16.0.0, SVG Export Plug-In . SVG Version: 6.00 Build 0)  -->
<!DOCTYPE svg PUBLIC "-//W3C//DTD SVG 1.1//EN" "http://www.w3.org/Graphics/SVG/1.1/DTD/svg11.dtd">
<svg version="1.1" xmlns="http://www.w3.org/2000/svg" xmlns:xlink="http://www.w3.org/1999/xlink" x="0px" y="0px"
	 width="421.125px" height="72.125px" viewBox="0 0 421.125 72.125" enable-background="new 0 0 421.125 72.125"
	 xml:space="preserve">
<g id="Layer_4" display="none">
	<rect x="-5" y="-4.375" display="inline" width="430" height="79"/>
</g>
<g id="Layer_1" display="none">
	<g display="inline">
		<path d="M24.646,7.154v49.279c0,0.402-0.234,0.77-0.569,0.938l-16.069,8.57c-0.167,0.1-0.334,0.134-0.502,0.134
			c-0.569,0-1.071-0.502-1.071-1.071V15.725c0-0.402,0.234-0.77,0.569-0.938l16.069-8.57c0.167-0.1,0.334-0.134,0.502-0.134
			C24.144,6.083,24.646,6.585,24.646,7.154z M28.329,6.184l17.141,8.57c0.368,0.201,0.603,0.569,0.603,0.971v49.279
			c0,0.569-0.502,1.071-1.071,1.071c-0.167,0-0.335-0.034-0.469-0.101l-17.141-8.57c-0.368-0.201-0.603-0.569-0.603-0.971V7.154
			c0-0.569,0.502-1.071,1.071-1.071C28.027,6.083,28.195,6.117,28.329,6.184z M66.426,7.154v49.279c0,0.402-0.234,0.77-0.569,0.938
			l-16.069,8.57c-0.167,0.1-0.334,0.134-0.502,0.134c-0.569,0-1.071-0.502-1.071-1.071V15.725c0-0.402,0.234-0.77,0.569-0.938
			l16.069-8.57c0.167-0.1,0.334-0.134,0.502-0.134C65.924,6.083,66.426,6.585,66.426,7.154z"/>
	</g>
	<g display="inline">
		<path d="M82.011,14.681h4.818l4.458,29.827l5.586-29.673h4.1l5.637,29.827l4.356-29.98h4.715l-6.662,41.512h-4.203l-5.791-30.75
			l-5.843,30.75h-4.407L82.011,14.681z"/>
		<path d="M120.448,14.681h5.483v14.965c2.46-2.323,4.937-3.485,7.431-3.485c1.605,0,2.742,0.582,3.408,1.743
			c0.666,1.162,1,2.597,1,4.305v23.984h-5.484V33.796c0-1.127-0.171-1.964-0.513-2.511c-0.342-0.546-0.957-0.82-1.845-0.82
			c-1.196,0-2.529,0.649-3.998,1.947v23.78h-5.483V14.681z"/>
		<path d="M145.969,55.295c-1.264-0.871-2.152-2.16-2.665-3.869c-0.513-1.708-0.769-3.929-0.769-6.663v-6.765
			c0-4.1,0.641-7.098,1.922-8.994c1.281-1.896,3.562-2.845,6.842-2.845c2.391,0,4.194,0.496,5.407,1.486
			c1.212,0.992,2.016,2.383,2.409,4.177c0.393,1.794,0.589,4.211,0.589,7.252v2.409H148.02v3.946c0,1.777,0.042,3.109,0.128,3.998
			c0.085,0.889,0.359,1.632,0.82,2.229c0.461,0.598,1.221,0.897,2.281,0.897c1.196,0,2.007-0.401,2.435-1.205
			c0.427-0.802,0.641-2.024,0.641-3.664v-1.794h5.33v1.127c0,3.109-0.666,5.484-1.999,7.124c-1.333,1.64-3.451,2.46-6.355,2.46
			C149.01,56.603,147.233,56.167,145.969,55.295z M154.323,38.511v-2.665c0-2.016-0.197-3.459-0.589-4.331
			c-0.394-0.872-1.222-1.307-2.486-1.307c-0.889,0-1.563,0.205-2.024,0.615c-0.461,0.41-0.777,1.085-0.948,2.024
			c-0.171,0.94-0.256,2.298-0.256,4.074v1.588H154.323z"/>
		<path d="M164.829,26.57h5.483v4.203c1.025-1.674,2.076-2.853,3.152-3.536c1.076-0.683,2.212-1.025,3.408-1.025
			c0.308,0,0.597,0.018,0.871,0.051v6.047c-1.094-0.41-2.101-0.615-3.023-0.615c-0.889,0-1.684,0.214-2.383,0.641
			c-0.701,0.428-1.375,1.171-2.024,2.229v21.627h-5.483V26.57z"/>
		<path d="M183.996,55.295c-1.264-0.871-2.152-2.16-2.665-3.869c-0.513-1.708-0.769-3.929-0.769-6.663v-6.765
			c0-4.1,0.641-7.098,1.922-8.994c1.281-1.896,3.562-2.845,6.842-2.845c2.391,0,4.194,0.496,5.407,1.486
			c1.212,0.992,2.016,2.383,2.409,4.177c0.393,1.794,0.589,4.211,0.589,7.252v2.409h-11.685v3.946c0,1.777,0.042,3.109,0.128,3.998
			c0.085,0.889,0.359,1.632,0.82,2.229c0.461,0.598,1.221,0.897,2.281,0.897c1.196,0,2.007-0.401,2.435-1.205
			c0.427-0.802,0.641-2.024,0.641-3.664v-1.794h5.33v1.127c0,3.109-0.666,5.484-1.999,7.124c-1.333,1.64-3.451,2.46-6.355,2.46
			C187.036,56.603,185.259,56.167,183.996,55.295z M192.35,38.511v-2.665c0-2.016-0.197-3.459-0.589-4.331
			c-0.394-0.872-1.222-1.307-2.486-1.307c-0.889,0-1.563,0.205-2.024,0.615c-0.461,0.41-0.777,1.085-0.948,2.024
			c-0.171,0.94-0.256,2.298-0.256,4.074v1.588H192.35z"/>
		<path d="M201.778,14.681h4.818l4.458,29.827l5.586-29.673h4.1l5.637,29.827l4.356-29.98h4.715l-6.662,41.512h-4.203l-5.791-30.75
			l-5.843,30.75h-4.407L201.778,14.681z"/>
		<path d="M240.215,14.681h5.483v14.965c2.46-2.323,4.937-3.485,7.431-3.485c1.605,0,2.742,0.582,3.408,1.743
			c0.666,1.162,1,2.597,1,4.305v23.984h-5.484V33.796c0-1.127-0.171-1.964-0.513-2.511c-0.342-0.546-0.957-0.82-1.845-0.82
			c-1.196,0-2.529,0.649-3.998,1.947v23.78h-5.483V14.681z"/>
		<path d="M262.405,59.421c2.05,0,3.459-0.154,4.228-0.461c0.769-0.308,1.153-0.889,1.153-1.743c0-0.205-0.069-0.649-0.205-1.333
			l-0.667-3.075l-0.256-1.025c-1.709-7.106-3.69-15.511-5.945-25.215h5.535l3.998,22.14l3.844-22.14h5.535l-7.072,31.262
			c-0.479,2.083-1.486,3.57-3.024,4.458c-1.537,0.888-3.69,1.333-6.457,1.333h-0.667V59.421z"/>
		<path d="M285.16,52.989c-1.674-2.442-2.511-5.817-2.511-10.122V28.21c0-4.543,0.82-7.995,2.46-10.353s4.543-3.536,8.712-3.536
			c3.724,0,6.397,1.008,8.021,3.024c1.622,2.016,2.434,4.989,2.434,8.917v3.28h-5.483v-2.921c0-1.913-0.086-3.382-0.256-4.407
			c-0.171-1.025-0.607-1.845-1.307-2.46c-0.701-0.615-1.819-0.923-3.357-0.923c-1.572,0-2.742,0.333-3.511,1
			c-0.769,0.667-1.273,1.589-1.512,2.768c-0.239,1.179-0.359,2.759-0.359,4.74V43.79c0,2.119,0.171,3.776,0.513,4.971
			c0.341,1.196,0.897,2.05,1.666,2.563s1.836,0.769,3.203,0.769c1.469,0,2.563-0.324,3.28-0.974c0.718-0.648,1.17-1.538,1.358-2.665
			c0.187-1.127,0.282-2.665,0.282-4.612v-3.075h5.483v3.075c0,4.134-0.777,7.303-2.332,9.507c-1.555,2.204-4.263,3.306-8.123,3.306
			C289.721,56.654,286.833,55.433,285.16,52.989z"/>
		<path d="M310.759,53.809c-1.315-1.861-1.973-4.569-1.973-8.123v-8.61c0-3.553,0.658-6.261,1.973-8.123
			c1.315-1.862,3.544-2.793,6.688-2.793c3.109,0,5.321,0.932,6.637,2.793c1.315,1.862,1.973,4.57,1.973,8.123v8.61
			c0,3.554-0.658,6.261-1.973,8.123c-1.315,1.863-3.528,2.793-6.637,2.793C314.303,56.603,312.074,55.672,310.759,53.809z
			 M319.599,51.683c0.444-0.581,0.718-1.298,0.82-2.153c0.103-0.854,0.154-2.015,0.154-3.485v-9.276c0-1.469-0.051-2.64-0.154-3.511
			s-0.376-1.597-0.82-2.178c-0.444-0.581-1.162-0.871-2.152-0.871c-0.991,0-1.717,0.291-2.178,0.871
			c-0.461,0.582-0.743,1.307-0.845,2.178s-0.154,2.042-0.154,3.511v9.276c0,1.47,0.051,2.631,0.154,3.485
			c0.103,0.854,0.384,1.572,0.845,2.153c0.461,0.581,1.187,0.871,2.178,0.871C318.438,52.554,319.155,52.264,319.599,51.683z"/>
		<path d="M331.591,14.681h5.484v41.512h-5.484V14.681z"/>
		<path d="M343.327,14.681h5.484v41.512h-5.484V14.681z"/>
		<path d="M357.419,55.295c-1.264-0.871-2.152-2.16-2.665-3.869c-0.513-1.708-0.769-3.929-0.769-6.663v-6.765
			c0-4.1,0.641-7.098,1.922-8.994c1.281-1.896,3.562-2.845,6.842-2.845c2.391,0,4.194,0.496,5.407,1.486
			c1.212,0.992,2.016,2.383,2.409,4.177c0.393,1.794,0.589,4.211,0.589,7.252v2.409H359.47v3.946c0,1.777,0.042,3.109,0.128,3.998
			c0.085,0.889,0.359,1.632,0.82,2.229c0.461,0.598,1.221,0.897,2.281,0.897c1.196,0,2.007-0.401,2.435-1.205
			c0.427-0.802,0.641-2.024,0.641-3.664v-1.794h5.33v1.127c0,3.109-0.666,5.484-1.999,7.124c-1.333,1.64-3.451,2.46-6.355,2.46
			C360.46,56.603,358.683,56.167,357.419,55.295z M365.773,38.511v-2.665c0-2.016-0.197-3.459-0.589-4.331
			c-0.394-0.872-1.222-1.307-2.486-1.307c-0.889,0-1.563,0.205-2.024,0.615c-0.461,0.41-0.777,1.085-0.948,2.024
			c-0.171,0.94-0.256,2.298-0.256,4.074v1.588H365.773z"/>
		<path d="M377.227,64.495c-1.896-0.581-2.844-1.828-2.844-3.741c0-1.537,0.401-2.87,1.205-3.997
			c0.802-1.128,1.819-2.016,3.049-2.665c-0.923-0.273-1.632-0.7-2.127-1.281c-0.496-0.581-0.743-1.212-0.743-1.896
			c0-1.025,0.256-1.913,0.769-2.665c0.513-0.751,1.35-1.657,2.511-2.716c-1.162-0.888-2.024-2.007-2.588-3.357
			c-0.564-1.349-0.846-3.168-0.846-5.458c0-3.451,0.709-6.073,2.127-7.867c1.417-1.794,3.493-2.691,6.227-2.691
			c1.571,0,2.853,0.274,3.844,0.82c0.991,0.547,1.743,1.367,2.255,2.46c0.239-0.375,0.743-0.879,1.512-1.512
			c0.769-0.632,1.597-1.153,2.485-1.563l0.82-0.358l1.384,3.536c-0.684,0.137-1.632,0.427-2.844,0.871
			c-1.213,0.444-1.939,0.786-2.178,1.025c0.239,0.615,0.453,1.469,0.641,2.563c0.188,1.094,0.282,2.05,0.282,2.87
			c0,3.246-0.633,5.766-1.896,7.559c-1.264,1.794-3.366,2.69-6.304,2.69c-0.922,0-1.862-0.119-2.818-0.358
			c-0.069,0.103-0.249,0.393-0.538,0.871c-0.291,0.479-0.436,0.94-0.436,1.384c0,0.376,0.196,0.675,0.589,0.897
			c0.393,0.223,1.017,0.367,1.871,0.436c0.513,0.069,1.29,0.146,2.332,0.23c1.042,0.086,1.802,0.146,2.281,0.179
			c4.578,0.41,6.867,2.819,6.867,7.227c0,2.63-0.709,4.518-2.127,5.663c-1.418,1.145-3.63,1.717-6.637,1.717
			C381.831,65.366,379.124,65.075,377.227,64.495z M388.784,60.369c0.751-0.461,1.128-1.204,1.128-2.229
			c0-0.957-0.291-1.666-0.872-2.126c-0.581-0.461-1.64-0.76-3.177-0.897l-4.664-0.41c-0.513,0.41-1.008,0.957-1.486,1.64
			c-0.479,0.683-0.718,1.417-0.718,2.204c0,0.615,0.154,1.102,0.461,1.46c0.308,0.359,0.914,0.623,1.819,0.794
			c0.905,0.171,2.229,0.256,3.972,0.256C386.853,61.061,388.032,60.831,388.784,60.369z M386.836,41.74
			c0.444-1.025,0.666-2.699,0.666-5.022c0-2.357-0.222-4.074-0.666-5.15c-0.444-1.077-1.384-1.615-2.819-1.615
			s-2.4,0.538-2.896,1.615c-0.496,1.076-0.743,2.793-0.743,5.15c0,2.119,0.248,3.741,0.743,4.869
			c0.495,1.127,1.443,1.691,2.844,1.691C385.435,43.278,386.392,42.765,386.836,41.74z"/>
		<path d="M401.289,55.295c-1.264-0.871-2.152-2.16-2.665-3.869c-0.513-1.708-0.769-3.929-0.769-6.663v-6.765
			c0-4.1,0.641-7.098,1.922-8.994c1.281-1.896,3.562-2.845,6.842-2.845c2.391,0,4.194,0.496,5.407,1.486
			c1.212,0.992,2.016,2.383,2.409,4.177c0.393,1.794,0.589,4.211,0.589,7.252v2.409h-11.685v3.946c0,1.777,0.042,3.109,0.128,3.998
			c0.085,0.889,0.359,1.632,0.82,2.229c0.461,0.598,1.221,0.897,2.281,0.897c1.196,0,2.007-0.401,2.435-1.205
			c0.427-0.802,0.641-2.024,0.641-3.664v-1.794h5.33v1.127c0,3.109-0.666,5.484-1.999,7.124c-1.333,1.64-3.451,2.46-6.355,2.46
			C404.329,56.603,402.552,56.167,401.289,55.295z M409.643,38.511v-2.665c0-2.016-0.197-3.459-0.589-4.331
			c-0.394-0.872-1.222-1.307-2.486-1.307c-0.889,0-1.563,0.205-2.024,0.615c-0.461,0.41-0.777,1.085-0.948,2.024
			c-0.171,0.94-0.256,2.298-0.256,4.074v1.588H409.643z"/>
	</g>
</g>
<g id="Layer_2">
	<g>
		<path fill="#F1C317" d="M24.646,7.154v49.279c0,0.402-0.234,0.77-0.569,0.938l-16.069,8.57c-0.167,0.1-0.334,0.134-0.502,0.134
			c-0.569,0-1.071-0.502-1.071-1.071V15.725c0-0.402,0.234-0.77,0.569-0.938l16.069-8.57c0.167-0.1,0.334-0.134,0.502-0.134
			C24.144,6.083,24.646,6.585,24.646,7.154z M28.329,6.184l17.141,8.57c0.368,0.201,0.603,0.569,0.603,0.971v49.279
			c0,0.569-0.502,1.071-1.071,1.071c-0.167,0-0.335-0.034-0.469-0.101l-17.141-8.57c-0.368-0.201-0.603-0.569-0.603-0.971V7.154
			c0-0.569,0.502-1.071,1.071-1.071C28.027,6.083,28.195,6.117,28.329,6.184z M66.426,7.154v49.279c0,0.402-0.234,0.77-0.569,0.938
			l-16.069,8.57c-0.167,0.1-0.334,0.134-0.502,0.134c-0.569,0-1.071-0.502-1.071-1.071V15.725c0-0.402,0.234-0.77,0.569-0.938
			l16.069-8.57c0.167-0.1,0.334-0.134,0.502-0.134C65.924,6.083,66.426,6.585,66.426,7.154z"/>
	</g>
</g>
<g id="Layer_3">
	<g>
		<path fill="#FFFFFF" d="M82.011,14.681h4.818l4.458,29.827l5.586-29.673h4.1l5.637,29.827l4.356-29.98h4.715l-6.662,41.512h-4.203
			l-5.791-30.75l-5.843,30.75h-4.407L82.011,14.681z"/>
		<path fill="#FFFFFF" d="M120.448,14.681h5.483v14.965c2.46-2.323,4.937-3.485,7.431-3.485c1.605,0,2.742,0.582,3.408,1.743
			c0.666,1.162,1,2.597,1,4.305v23.984h-5.484V33.796c0-1.127-0.171-1.964-0.513-2.511c-0.342-0.546-0.957-0.82-1.845-0.82
			c-1.196,0-2.529,0.649-3.998,1.947v23.78h-5.483V14.681z"/>
		<path fill="#FFFFFF" d="M145.969,55.295c-1.264-0.871-2.152-2.16-2.665-3.869c-0.513-1.708-0.769-3.929-0.769-6.663v-6.765
			c0-4.1,0.641-7.098,1.922-8.994c1.281-1.896,3.562-2.845,6.842-2.845c2.391,0,4.194,0.496,5.407,1.486
			c1.212,0.992,2.016,2.383,2.409,4.177c0.393,1.794,0.589,4.211,0.589,7.252v2.409H148.02v3.946c0,1.777,0.042,3.109,0.128,3.998
			c0.085,0.889,0.359,1.632,0.82,2.229c0.461,0.598,1.221,0.897,2.281,0.897c1.196,0,2.007-0.401,2.435-1.205
			c0.427-0.802,0.641-2.024,0.641-3.664v-1.794h5.33v1.127c0,3.109-0.666,5.484-1.999,7.124c-1.333,1.64-3.451,2.46-6.355,2.46
			C149.01,56.603,147.233,56.167,145.969,55.295z M154.323,38.511v-2.665c0-2.016-0.197-3.459-0.589-4.331
			c-0.394-0.872-1.222-1.307-2.486-1.307c-0.889,0-1.563,0.205-2.024,0.615c-0.461,0.41-0.777,1.085-0.948,2.024
			c-0.171,0.94-0.256,2.298-0.256,4.074v1.588H154.323z"/>
		<path fill="#FFFFFF" d="M164.829,26.57h5.483v4.203c1.025-1.674,2.076-2.853,3.152-3.536c1.076-0.683,2.212-1.025,3.408-1.025
			c0.308,0,0.597,0.018,0.871,0.051v6.047c-1.094-0.41-2.101-0.615-3.023-0.615c-0.889,0-1.684,0.214-2.383,0.641
			c-0.701,0.428-1.375,1.171-2.024,2.229v21.627h-5.483V26.57z"/>
		<path fill="#FFFFFF" d="M183.996,55.295c-1.264-0.871-2.152-2.16-2.665-3.869c-0.513-1.708-0.769-3.929-0.769-6.663v-6.765
			c0-4.1,0.641-7.098,1.922-8.994c1.281-1.896,3.562-2.845,6.842-2.845c2.391,0,4.194,0.496,5.407,1.486
			c1.212,0.992,2.016,2.383,2.409,4.177c0.393,1.794,0.589,4.211,0.589,7.252v2.409h-11.685v3.946c0,1.777,0.042,3.109,0.128,3.998
			c0.085,0.889,0.359,1.632,0.82,2.229c0.461,0.598,1.221,0.897,2.281,0.897c1.196,0,2.007-0.401,2.435-1.205
			c0.427-0.802,0.641-2.024,0.641-3.664v-1.794h5.33v1.127c0,3.109-0.666,5.484-1.999,7.124c-1.333,1.64-3.451,2.46-6.355,2.46
			C187.036,56.603,185.259,56.167,183.996,55.295z M192.35,38.511v-2.665c0-2.016-0.197-3.459-0.589-4.331
			c-0.394-0.872-1.222-1.307-2.486-1.307c-0.889,0-1.563,0.205-2.024,0.615c-0.461,0.41-0.777,1.085-0.948,2.024
			c-0.171,0.94-0.256,2.298-0.256,4.074v1.588H192.35z"/>
		<path fill="#FFFFFF" d="M201.778,14.681h4.818l4.458,29.827l5.586-29.673h4.1l5.637,29.827l4.356-29.98h4.715l-6.662,41.512
			h-4.203l-5.791-30.75l-5.843,30.75h-4.407L201.778,14.681z"/>
		<path fill="#FFFFFF" d="M240.215,14.681h5.483v14.965c2.46-2.323,4.937-3.485,7.431-3.485c1.605,0,2.742,0.582,3.408,1.743
			c0.666,1.162,1,2.597,1,4.305v23.984h-5.484V33.796c0-1.127-0.171-1.964-0.513-2.511c-0.342-0.546-0.957-0.82-1.845-0.82
			c-1.196,0-2.529,0.649-3.998,1.947v23.78h-5.483V14.681z"/>
		<path fill="#FFFFFF" d="M262.405,59.421c2.05,0,3.459-0.154,4.228-0.461c0.769-0.308,1.153-0.889,1.153-1.743
			c0-0.205-0.069-0.649-0.205-1.333l-0.667-3.075l-0.256-1.025c-1.709-7.106-3.69-15.511-5.945-25.215h5.535l3.998,22.14
			l3.844-22.14h5.535l-7.072,31.262c-0.479,2.083-1.486,3.57-3.024,4.458c-1.537,0.888-3.69,1.333-6.457,1.333h-0.667V59.421z"/>
		<path fill="#FFFFFF" d="M285.16,52.989c-1.674-2.442-2.511-5.817-2.511-10.122V28.21c0-4.543,0.82-7.995,2.46-10.353
			s4.543-3.536,8.712-3.536c3.724,0,6.397,1.008,8.021,3.024c1.622,2.016,2.434,4.989,2.434,8.917v3.28h-5.483v-2.921
			c0-1.913-0.086-3.382-0.256-4.407c-0.171-1.025-0.607-1.845-1.307-2.46c-0.701-0.615-1.819-0.923-3.357-0.923
			c-1.572,0-2.742,0.333-3.511,1c-0.769,0.667-1.273,1.589-1.512,2.768c-0.239,1.179-0.359,2.759-0.359,4.74V43.79
			c0,2.119,0.171,3.776,0.513,4.971c0.341,1.196,0.897,2.05,1.666,2.563s1.836,0.769,3.203,0.769c1.469,0,2.563-0.324,3.28-0.974
			c0.718-0.648,1.17-1.538,1.358-2.665c0.187-1.127,0.282-2.665,0.282-4.612v-3.075h5.483v3.075c0,4.134-0.777,7.303-2.332,9.507
			c-1.555,2.204-4.263,3.306-8.123,3.306C289.721,56.654,286.833,55.433,285.16,52.989z"/>
		<path fill="#FFFFFF" d="M310.759,53.809c-1.315-1.861-1.973-4.569-1.973-8.123v-8.61c0-3.553,0.658-6.261,1.973-8.123
			c1.315-1.862,3.544-2.793,6.688-2.793c3.109,0,5.321,0.932,6.637,2.793c1.315,1.862,1.973,4.57,1.973,8.123v8.61
			c0,3.554-0.658,6.261-1.973,8.123c-1.315,1.863-3.528,2.793-6.637,2.793C314.303,56.603,312.074,55.672,310.759,53.809z
			 M319.599,51.683c0.444-0.581,0.718-1.298,0.82-2.153c0.103-0.854,0.154-2.015,0.154-3.485v-9.276c0-1.469-0.051-2.64-0.154-3.511
			s-0.376-1.597-0.82-2.178c-0.444-0.581-1.162-0.871-2.152-0.871c-0.991,0-1.717,0.291-2.178,0.871
			c-0.461,0.582-0.743,1.307-0.845,2.178s-0.154,2.042-0.154,3.511v9.276c0,1.47,0.051,2.631,0.154,3.485
			c0.103,0.854,0.384,1.572,0.845,2.153c0.461,0.581,1.187,0.871,2.178,0.871C318.438,52.554,319.155,52.264,319.599,51.683z"/>
		<path fill="#FFFFFF" d="M331.591,14.681h5.484v41.512h-5.484V14.681z"/>
		<path fill="#FFFFFF" d="M343.327,14.681h5.484v41.512h-5.484V14.681z"/>
		<path fill="#FFFFFF" d="M357.419,55.295c-1.264-0.871-2.152-2.16-2.665-3.869c-0.513-1.708-0.769-3.929-0.769-6.663v-6.765
			c0-4.1,0.641-7.098,1.922-8.994c1.281-1.896,3.562-2.845,6.842-2.845c2.391,0,4.194,0.496,5.407,1.486
			c1.212,0.992,2.016,2.383,2.409,4.177c0.393,1.794,0.589,4.211,0.589,7.252v2.409H359.47v3.946c0,1.777,0.042,3.109,0.128,3.998
			c0.085,0.889,0.359,1.632,0.82,2.229c0.461,0.598,1.221,0.897,2.281,0.897c1.196,0,2.007-0.401,2.435-1.205
			c0.427-0.802,0.641-2.024,0.641-3.664v-1.794h5.33v1.127c0,3.109-0.666,5.484-1.999,7.124c-1.333,1.64-3.451,2.46-6.355,2.46
			C360.46,56.603,358.683,56.167,357.419,55.295z M365.773,38.511v-2.665c0-2.016-0.197-3.459-0.589-4.331
			c-0.394-0.872-1.222-1.307-2.486-1.307c-0.889,0-1.563,0.205-2.024,0.615c-0.461,0.41-0.777,1.085-0.948,2.024
			c-0.171,0.94-0.256,2.298-0.256,4.074v1.588H365.773z"/>
		<path fill="#FFFFFF" d="M377.227,64.495c-1.896-0.581-2.844-1.828-2.844-3.741c0-1.537,0.401-2.87,1.205-3.997
			c0.802-1.128,1.819-2.016,3.049-2.665c-0.923-0.273-1.632-0.7-2.127-1.281c-0.496-0.581-0.743-1.212-0.743-1.896
			c0-1.025,0.256-1.913,0.769-2.665c0.513-0.751,1.35-1.657,2.511-2.716c-1.162-0.888-2.024-2.007-2.588-3.357
			c-0.564-1.349-0.846-3.168-0.846-5.458c0-3.451,0.709-6.073,2.127-7.867c1.417-1.794,3.493-2.691,6.227-2.691
			c1.571,0,2.853,0.274,3.844,0.82c0.991,0.547,1.743,1.367,2.255,2.46c0.239-0.375,0.743-0.879,1.512-1.512
			c0.769-0.632,1.597-1.153,2.485-1.563l0.82-0.358l1.384,3.536c-0.684,0.137-1.632,0.427-2.844,0.871
			c-1.213,0.444-1.939,0.786-2.178,1.025c0.239,0.615,0.453,1.469,0.641,2.563c0.188,1.094,0.282,2.05,0.282,2.87
			c0,3.246-0.633,5.766-1.896,7.559c-1.264,1.794-3.366,2.69-6.304,2.69c-0.922,0-1.862-0.119-2.818-0.358
			c-0.069,0.103-0.249,0.393-0.538,0.871c-0.291,0.479-0.436,0.94-0.436,1.384c0,0.376,0.196,0.675,0.589,0.897
			c0.393,0.223,1.017,0.367,1.871,0.436c0.513,0.069,1.29,0.146,2.332,0.23c1.042,0.086,1.802,0.146,2.281,0.179
			c4.578,0.41,6.867,2.819,6.867,7.227c0,2.63-0.709,4.518-2.127,5.663c-1.418,1.145-3.63,1.717-6.637,1.717
			C381.831,65.366,379.124,65.075,377.227,64.495z M388.784,60.369c0.751-0.461,1.128-1.204,1.128-2.229
			c0-0.957-0.291-1.666-0.872-2.126c-0.581-0.461-1.64-0.76-3.177-0.897l-4.664-0.41c-0.513,0.41-1.008,0.957-1.486,1.64
			c-0.479,0.683-0.718,1.417-0.718,2.204c0,0.615,0.154,1.102,0.461,1.46c0.308,0.359,0.914,0.623,1.819,0.794
			c0.905,0.171,2.229,0.256,3.972,0.256C386.853,61.061,388.032,60.831,388.784,60.369z M386.836,41.74
			c0.444-1.025,0.666-2.699,0.666-5.022c0-2.357-0.222-4.074-0.666-5.15c-0.444-1.077-1.384-1.615-2.819-1.615
			s-2.4,0.538-2.896,1.615c-0.496,1.076-0.743,2.793-0.743,5.15c0,2.119,0.248,3.741,0.743,4.869
			c0.495,1.127,1.443,1.691,2.844,1.691C385.435,43.278,386.392,42.765,386.836,41.74z"/>
		<path fill="#FFFFFF" d="M401.289,55.295c-1.264-0.871-2.152-2.16-2.665-3.869c-0.513-1.708-0.769-3.929-0.769-6.663v-6.765
			c0-4.1,0.641-7.098,1.922-8.994c1.281-1.896,3.562-2.845,6.842-2.845c2.391,0,4.194,0.496,5.407,1.486
			c1.212,0.992,2.016,2.383,2.409,4.177c0.393,1.794,0.589,4.211,0.589,7.252v2.409h-11.685v3.946c0,1.777,0.042,3.109,0.128,3.998
			c0.085,0.889,0.359,1.632,0.82,2.229c0.461,0.598,1.221,0.897,2.281,0.897c1.196,0,2.007-0.401,2.435-1.205
			c0.427-0.802,0.641-2.024,0.641-3.664v-1.794h5.33v1.127c0,3.109-0.666,5.484-1.999,7.124c-1.333,1.64-3.451,2.46-6.355,2.46
			C404.329,56.603,402.552,56.167,401.289,55.295z M409.643,38.511v-2.665c0-2.016-0.197-3.459-0.589-4.331
			c-0.394-0.872-1.222-1.307-2.486-1.307c-0.889,0-1.563,0.205-2.024,0.615c-0.461,0.41-0.777,1.085-0.948,2.024
			c-0.171,0.94-0.256,2.298-0.256,4.074v1.588H409.643z"/>
	</g>
	<g>
	</g>
	<g>
	</g>
	<g>
	</g>
	<g>
	</g>
	<g>
	</g>
	<g>
	</g>
	<g>
	</g>
	<g>
	</g>
	<g>
	</g>
	<g>
	</g>
	<g>
	</g>
	<g>
	</g>
	<g>
	</g>
	<g>
	</g>
	<g>
	</g>
</g>
</svg>
